<svg width="135" height="145" viewBox="0 0 135 145" fill="none" xmlns="http://www.w3.org/2000/svg">
<path d="M105.156 4.3374L105.156 4.33739L31.8068 3.24176L31.8067 3.24176L31.8066 3.24176L31.8065 3.24176L31.8064 3.24175L31.8063 3.24175L31.8062 3.24175L31.8061 3.24175L31.806 3.24175L31.8058 3.24175L31.8057 3.24174L31.8056 3.24174L31.8055 3.24174L31.8054 3.24174L31.8053 3.24174L31.8052 3.24174L31.8051 3.24174L31.805 3.24173L31.8049 3.24173L31.8048 3.24173L31.8047 3.24173L31.8045 3.24173L31.8044 3.24173L31.8043 3.24172L31.8042 3.24172L31.8041 3.24172L31.804 3.24172L31.8039 3.24172L31.8038 3.24172L31.8037 3.24171L31.8036 3.24171L31.8035 3.24171L31.8034 3.24171L31.8033 3.24171L31.8032 3.24171L31.803 3.2417L31.8029 3.2417L31.8028 3.2417L31.8027 3.2417L31.8026 3.2417L31.8025 3.2417L31.8024 3.2417L31.8023 3.24169L31.8022 3.24169L31.8021 3.24169L31.802 3.24169L31.8019 3.24169L31.8018 3.24169L31.8017 3.24168L31.8015 3.24168L31.8014 3.24168L31.8013 3.24168L31.8012 3.24168L31.8011 3.24168L31.801 3.24167L31.8009 3.24167L31.8008 3.24167L31.8007 3.24167L31.8006 3.24167L31.8005 3.24167L31.8004 3.24166L31.8003 3.24166L31.8002 3.24166L31.8 3.24166L31.7999 3.24166L31.7998 3.24166L31.7997 3.24166L31.7996 3.24165L31.7995 3.24165L31.7994 3.24165L31.7993 3.24165L31.7992 3.24165L31.7991 3.24165L31.799 3.24164L31.7989 3.24164L31.7988 3.24164L31.7987 3.24164L31.7986 3.24164L31.7985 3.24164L31.7983 3.24163L31.7982 3.24163L31.7981 3.24163L31.798 3.24163L31.7979 3.24163L31.7978 3.24163L31.7977 3.24163L31.7976 3.24162L31.7975 3.24162L31.7974 3.24162L31.7973 3.24162L31.7972 3.24162L31.7971 3.24162L31.797 3.24161L31.7969 3.24161L31.7968 3.24161L31.7967 3.24161L31.7965 3.24161L31.7964 3.24161L31.7963 3.2416L31.7962 3.2416L31.7961 3.2416L31.796 3.2416L31.7959 3.2416L31.7958 3.2416L31.7957 3.2416L31.7956 3.24159L31.7955 3.24159L31.7954 3.24159L31.7953 3.24159L31.7952 3.24159L31.7951 3.24159L31.795 3.24158L31.7949 3.24158L31.7948 3.24158L31.7946 3.24158L31.7945 3.24158L31.7944 3.24158L31.7943 3.24157L31.7942 3.24157L31.7941 3.24157L31.794 3.24157L31.7939 3.24157L31.7938 3.24157L31.7937 3.24157L31.7936 3.24156L31.7935 3.24156L31.7934 3.24156L31.7933 3.24156L31.7932 3.24156L31.7931 3.24156L31.793 3.24155L31.7929 3.24155L31.7928 3.24155L31.7926 3.24155L31.7925 3.24155L31.7924 3.24155L31.7923 3.24154L31.7922 3.24154L31.7921 3.24154L31.792 3.24154L31.7919 3.24154L31.7918 3.24154L31.7917 3.24154L31.7916 3.24153L31.7915 3.24153L31.7914 3.24153L31.7913 3.24153L31.7912 3.24153L31.7911 3.24153L31.791 3.24152L31.7909 3.24152L31.7908 3.24152L31.7907 3.24152L31.7906 3.24152L31.7905 3.24152L31.7903 3.24152L31.7902 3.24151L31.7901 3.24151L31.79 3.24151L31.7899 3.24151L31.7898 3.24151L31.7897 3.24151L31.7896 3.2415L31.7895 3.2415L31.7894 3.2415L31.7893 3.2415L31.7892 3.2415L31.7891 3.2415L31.789 3.24149L31.7889 3.24149L31.7888 3.24149L31.7887 3.24149L31.7886 3.24149L31.7885 3.24149L31.7884 3.24149L31.7883 3.24148L31.7882 3.24148L31.7881 3.24148L31.788 3.24148L31.7878 3.24148L31.7877 3.24148L31.7876 3.24147L31.7875 3.24147L31.7874 3.24147L31.7873 3.24147L31.7872 3.24147L31.7871 3.24147L31.787 3.24147L31.7869 3.24146L31.7868 3.24146L31.7867 3.24146L31.7866 3.24146L31.7865 3.24146L31.7864 3.24146L31.7863 3.24145L31.7862 3.24145L31.7861 3.24145L31.786 3.24145L31.7859 3.24145L31.7858 3.24145L31.7857 3.24145L31.7856 3.24144L31.7855 3.24144L31.7854 3.24144L31.7853 3.24144L31.7852 3.24144L31.785 3.24144L31.7849 3.24143L31.7848 3.24143L31.7847 3.24143L31.7846 3.24143L31.7845 3.24143L31.7844 3.24143L31.7843 3.24143L31.7842 3.24142L31.7841 3.24142L31.784 3.24142L31.7839 3.24142L31.7838 3.24142L31.7837 3.24142L31.7836 3.24141L31.7835 3.24141L31.7834 3.24141L31.7833 3.24141L31.7832 3.24141L31.7831 3.24141L31.783 3.24141L31.7829 3.2414L31.7828 3.2414L31.7827 3.2414L31.7826 3.2414L31.7825 3.2414L31.7824 3.2414L31.7823 3.24139L31.7822 3.24139L31.7821 3.24139L31.782 3.24139L31.7819 3.24139L31.7818 3.24139L31.7816 3.24139L31.7815 3.24138L31.7814 3.24138L31.7813 3.24138L31.7812 3.24138L31.7811 3.24138L31.781 3.24138L31.7809 3.24137L31.7808 3.24137L31.7807 3.24137L31.7806 3.24137L31.7805 3.24137L31.7804 3.24137L31.7803 3.24137L31.7802 3.24136L31.7801 3.24136L31.78 3.24136L31.7799 3.24136L31.7798 3.24136L31.7797 3.24136L31.7796 3.24135L31.7795 3.24135L31.7794 3.24135L31.7793 3.24135L31.7792 3.24135L31.7791 3.24135L31.779 3.24135L31.7789 3.24134L31.7788 3.24134L31.7787 3.24134L31.7786 3.24134L31.7785 3.24134L31.7784 3.24134L31.7783 3.24133L31.7782 3.24133L31.7781 3.24133L31.778 3.24133L31.7779 3.24133L31.7778 3.24133L31.7776 3.24133L31.7775 3.24132L31.7774 3.24132L31.7773 3.24132L31.7772 3.24132L31.7771 3.24132L31.777 3.24132L31.7769 3.24131L31.7768 3.24131L31.7767 3.24131L31.7766 3.24131L31.7765 3.24131L31.7764 3.24131L31.7763 3.24131L31.7762 3.2413L31.7761 3.2413L31.776 3.2413L31.7759 3.2413L31.7758 3.2413L31.7757 3.2413L31.7756 3.24129L31.7755 3.24129L31.7754 3.24129L31.7753 3.24129L31.7752 3.24129L31.7751 3.24129L31.775 3.24129L31.7749 3.24128L31.7748 3.24128L31.7747 3.24128L31.7746 3.24128L31.7745 3.24128L31.7744 3.24128L31.7743 3.24128L31.7742 3.24127L31.7741 3.24127L31.774 3.24127L31.7739 3.24127L31.7738 3.24127L31.7737 3.24127L31.7736 3.24126L31.7735 3.24126L31.7734 3.24126L31.7733 3.24126L31.7732 3.24126L31.7731 3.24126L31.773 3.24126L31.7729 3.24125L31.7728 3.24125L31.7727 3.24125L31.7726 3.24125L31.7725 3.24125L31.7723 3.24125L31.7722 3.24124L31.7721 3.24124L31.772 3.24124L31.7719 3.24124L31.7718 3.24124L31.7717 3.24124L31.7716 3.24124L31.7715 3.24123L31.7714 3.24123L31.7713 3.24123L31.7712 3.24123L31.7711 3.24123L31.771 3.24123L31.7709 3.24123L31.7708 3.24122L31.7707 3.24122L31.7706 3.24122L31.7705 3.24122L31.7704 3.24122L31.7703 3.24122L31.7702 3.24121L31.7701 3.24121L31.77 3.24121L31.7699 3.24121L31.7698 3.24121L31.7697 3.24121L31.7696 3.24121L31.7695 3.2412L31.7694 3.2412L31.7693 3.2412L31.7692 3.2412L31.7691 3.2412L31.769 3.2412L31.7689 3.24119L31.7688 3.24119L31.7687 3.24119L31.7686 3.24119L31.7685 3.24119L31.7684 3.24119L31.7683 3.24119L31.7682 3.24118L31.7681 3.24118L31.768 3.24118L31.7679 3.24118L31.7678 3.24118L31.7677 3.24118L31.7676 3.24118L31.7675 3.24117L31.7674 3.24117L31.7673 3.24117L31.7672 3.24117L31.7671 3.24117L31.767 3.24117L31.7669 3.24116L31.7668 3.24116L31.7667 3.24116L31.7666 3.24116L31.7665 3.24116L31.7664 3.24116L31.7663 3.24116L31.7662 3.24115L31.7661 3.24115L31.766 3.24115L31.7659 3.24115L31.7658 3.24115L31.7657 3.24115L31.7656 3.24114L31.7655 3.24114L31.7654 3.24114L31.7653 3.24114L31.7652 3.24114L31.7651 3.24114L31.765 3.24114L31.7649 3.24113L31.7648 3.24113L31.7647 3.24113L31.7646 3.24113L31.7645 3.24113L31.7644 3.24113L31.7642 3.24113L31.7641 3.24112L31.764 3.24112L31.7639 3.24112L31.7638 3.24112L31.7637 3.24112L31.7636 3.24112L31.7635 3.24111L31.7634 3.24111L31.7633 3.24111L31.7632 3.24111L31.7631 3.24111L31.763 3.24111L31.7629 3.24111L31.7628 3.2411L31.7627 3.2411L31.7626 3.2411L31.7625 3.2411L31.7624 3.2411L31.7623 3.2411L31.7622 3.2411L31.7621 3.24109L31.762 3.24109L31.7619 3.24109L31.7618 3.24109L31.7617 3.24109L31.7616 3.24109L31.7615 3.24108L31.7614 3.24108L31.7613 3.24108L31.7612 3.24108L31.7611 3.24108L31.761 3.24108L31.7609 3.24108L31.7608 3.24107L31.7607 3.24107L31.7606 3.24107L31.7605 3.24107L31.7604 3.24107L31.7603 3.24107L31.7602 3.24107L31.7601 3.24106L31.76 3.24106L31.7599 3.24106L31.7598 3.24106L31.7597 3.24106L31.7596 3.24106L31.7595 3.24105L31.7594 3.24105L31.7593 3.24105L31.7592 3.24105L31.7591 3.24105L31.759 3.24105L31.7589 3.24105L31.7588 3.24104L31.7587 3.24104L31.7586 3.24104L31.7585 3.24104L31.7584 3.24104L31.7583 3.24104L31.7582 3.24103L31.7581 3.24103L31.758 3.24103L31.7579 3.24103L31.7578 3.24103L31.7577 3.24103L31.7576 3.24103L31.7575 3.24102L31.7574 3.24102L31.7573 3.24102L31.7572 3.24102L31.7571 3.24102L31.757 3.24102L31.7569 3.24102L31.7568 3.24101L31.7567 3.24101L31.7566 3.24101L31.7565 3.24101L31.7564 3.24101L31.7563 3.24101L31.7562 3.241L31.7561 3.241L31.756 3.241L31.7559 3.241L31.7558 3.241L31.7557 3.241L31.7556 3.241L31.7555 3.24099L31.7554 3.24099L31.7553 3.24099L31.7552 3.24099L31.7551 3.24099L31.755 3.24099L31.7549 3.24099L31.7548 3.24098L31.7547 3.24098L31.7546 3.24098L31.7545 3.24098L31.7544 3.24098L31.7543 3.24098L31.7542 3.24097L31.7541 3.24097L31.754 3.24097L31.6853 3.23995L31.6853 3.23983L31.6747 3.2399C30.0538 3.24986 28.5011 3.89385 27.3489 5.03407C26.1968 6.17429 25.5366 7.72018 25.5098 9.34095L25.5097 9.34176L23.8052 123.453L23.8052 123.453C23.783 125.098 24.4138 126.684 25.5595 127.864C26.7051 129.045 28.272 129.722 29.9166 129.749L29.9172 129.749L103.266 130.844L103.267 130.844C104.911 130.867 106.498 130.236 107.678 129.091C108.859 127.946 109.536 126.379 109.563 124.734L109.563 124.734L111.268 10.6346L111.268 10.6341C111.29 8.98921 110.66 7.40254 109.514 6.2221C108.368 5.04167 106.801 4.36387 105.156 4.3374ZM41.9548 125.668L78.8345 112.742L78.8362 112.741C79.8356 112.387 80.7031 111.736 81.3225 110.875C81.942 110.015 82.2838 108.985 82.3024 107.925L82.3024 107.924L83.5169 26.619L83.5169 26.6177C83.53 25.5569 83.2187 24.5175 82.6246 23.6386C82.0306 22.7598 81.1822 22.0834 80.193 21.7001L80.1918 21.6996L43.7175 7.67973L105.092 8.59649C105.092 8.59649 105.092 8.59649 105.092 8.59649C105.608 8.60481 106.099 8.8174 106.459 9.18762C106.818 9.5579 107.016 10.0556 107.009 10.5716L105.304 124.67C105.296 125.185 105.083 125.677 104.713 126.036C104.343 126.395 103.845 126.593 103.329 126.585L41.9548 125.668ZM28.0644 123.514L29.7686 9.41953C29.7805 8.9348 29.9745 8.47229 30.3121 8.12417C30.6267 7.79979 31.0443 7.59694 31.4915 7.54913L78.6617 25.6754C78.6619 25.6755 78.6621 25.6756 78.6624 25.6757C78.8394 25.7445 78.9912 25.8656 79.0976 26.0229C79.204 26.1802 79.2598 26.3661 79.2578 26.5559C79.2578 26.5562 79.2578 26.5566 79.2578 26.5569L78.0433 107.861C78.0433 107.862 78.0433 107.862 78.0433 107.862C78.0397 108.052 77.9785 108.236 77.8678 108.39C77.757 108.544 77.6021 108.661 77.4235 108.725C77.4232 108.725 77.4229 108.725 77.4226 108.725L29.7305 125.434C29.285 125.373 28.8737 125.158 28.5689 124.825C28.2419 124.467 28.0618 123.999 28.0644 123.514Z" fill="white" stroke="black"/>
<path d="M40.9124 56.6518L40.9097 56.6516C39.9957 56.5614 39.1488 56.1319 38.5359 55.4479C37.9231 54.7638 37.5889 53.875 37.5993 52.9566L37.5994 52.9548L38.0275 24.2931C38.0275 24.293 38.0275 24.293 38.0275 24.293C38.0359 23.7283 38.1749 23.1733 38.4338 22.6714C38.6926 22.1694 39.0642 21.7343 39.5194 21.4C39.9746 21.0657 40.501 20.8414 41.0574 20.7447C41.6138 20.648 42.1851 20.6815 42.7264 20.8425L72.1439 29.595L72.1456 29.5955C72.9078 29.8252 73.5746 30.2963 74.0457 30.938C74.5168 31.5797 74.7665 32.3571 74.7573 33.153L74.7573 33.1547L74.4188 55.8127L74.4188 55.8133L73.9189 55.8059C73.9132 56.2208 73.8257 56.6305 73.6614 57.0115C73.4971 57.3926 73.2592 57.7374 72.9614 58.0264C72.6636 58.3153 72.3117 58.5426 71.9258 58.6953C71.54 58.848 71.1278 58.9231 70.7129 58.9162L40.9124 56.6518ZM40.9124 56.6518L70.4223 59.4011L70.4417 59.4029L70.4612 59.4032C70.4849 59.4036 70.5112 59.4053 70.5545 59.4084L70.5587 59.4088C70.5968 59.4115 70.6495 59.4153 70.7046 59.4161L40.9124 56.6518ZM42.1423 25.1129L70.4944 33.4709L70.2016 55.1043L41.8593 52.5543L42.1423 25.1129Z" stroke="black"/>
<path d="M69.2488 67.4175C69.3365 68.215 69.6526 68.9703 70.1591 69.5926C70.6655 70.2149 71.3408 70.6778 72.1038 70.9258C72.8669 71.1739 73.6853 71.1964 74.4609 70.9907C75.2364 70.7851 75.9361 70.3599 76.476 69.7664C77.0159 69.1729 77.3731 68.4362 77.5046 67.6447C77.6361 66.8532 77.5364 66.0405 77.2175 65.3043C76.8985 64.5681 76.3739 63.9395 75.7065 63.4941C75.0392 63.0487 74.2575 62.8053 73.4552 62.7932C72.2863 62.8546 71.1889 63.3747 70.4013 64.2406C69.6137 65.1064 69.1995 66.248 69.2488 67.4175ZM74.2611 67.4923C74.2489 68.3088 73.7787 68.9123 73.3639 68.9061C72.9491 68.8999 72.4958 68.2826 72.508 67.4662C72.5202 66.6497 72.993 66.0463 73.4065 66.0524C73.82 66.0586 74.2667 66.6758 74.2545 67.4922L74.2611 67.4923Z" fill="black"/>
</svg>
