<svg width="16" height="16" viewBox="0 0 16 16" fill="none" xmlns="http://www.w3.org/2000/svg">
<path d="M8.00001 7.54167C9.77192 7.54167 11.2083 6.10525 11.2083 4.33333C11.2083 2.56142 9.77192 1.125 8.00001 1.125C6.22809 1.125 4.79167 2.56142 4.79167 4.33333C4.79167 6.10525 6.22809 7.54167 8.00001 7.54167Z" stroke="#333333" stroke-width="0.75" stroke-linecap="round"/>
<path d="M1.44584 12.5357C2.03159 10.3861 4.25542 9.375 6.48292 9.375H9.51709C11.7446 9.375 13.9684 10.3861 14.5551 12.5357C14.6828 13.0023 14.7733 13.4783 14.8255 13.9592C14.8805 14.4634 14.4643 14.875 13.9583 14.875H2.04167C1.53567 14.875 1.12042 14.4625 1.1745 13.9602C1.22666 13.4789 1.318 13.0026 1.44584 12.5357Z" stroke="#333333" stroke-width="0.75" stroke-linecap="round"/>
</svg>
